<?xml version="1.0" encoding="iso-8859-1"?>
<!-- Generator: Adobe Illustrator 18.0.0, SVG Export Plug-In . SVG Version: 6.00 Build 0)  -->
<!DOCTYPE svg PUBLIC "-//W3C//DTD SVG 1.1//EN" "http://www.w3.org/Graphics/SVG/1.1/DTD/svg11.dtd">
<svg version="1.1" id="Capa_1" xmlns="http://www.w3.org/2000/svg" xmlns:xlink="http://www.w3.org/1999/xlink" x="0px" y="0px"
	 viewBox="0 0 31 32" style="enable-background:new 0 0 31 32;" xml:space="preserve">
<g id="_x34__18_">
	<g>
		<path style="fill-rule:evenodd;clip-rule:evenodd;" d="M12.5,13c0.828,0,1.5-0.671,1.5-1.5c0-0.828-0.672-1.5-1.5-1.5
			c-0.828,0-1.5,0.672-1.5,1.5C11,12.329,11.672,13,12.5,13z M18.5,13c0.828,0,1.5-0.671,1.5-1.5c0-0.828-0.672-1.5-1.5-1.5
			c-0.828,0-1.5,0.672-1.5,1.5C17,12.329,17.672,13,18.5,13z M9.636,22.737C10.414,22.863,12.181,23,13,23
			c7.18,0,12-5.343,12-11.625C25,5.093,18.977,0,13,0C5.81,0,0,5.093,0,11.375c0,3.639,1.387,6.729,4,8.954V26L9.636,22.737z
			 M2,11.5C2,6.253,6.753,2,13,2c4.973,0,10,4.253,10,9.5c0,5.247-3.925,9.5-10,9.5c-0.893,0-2.756-0.102-3.587-0.275L6,23v-3.544
			C3.561,17.477,2,14.833,2,11.5z M26.949,9.138C26.968,9.425,27,9.709,27,10c0,0.636-0.061,1.259-0.151,1.874
			C28.195,13.45,29,15.391,29,17.5c0,3.333-1.992,6.261-5,7.956V29l-3.413-2.275C19.756,26.898,18.893,27,18,27
			c-2.59,0-3.966-0.778-5.846-2.072C11.609,24.972,11.058,25,10.5,25c-0.398,0-0.788-0.029-1.18-0.051
			c2.38,2.328,4.829,3.801,8.68,3.801c0.819,0,1.618-0.074,2.395-0.201L26,32v-5.672c3.039-2.082,5-5.314,5-8.954
			C31,14.13,29.44,11.211,26.949,9.138z M6.5,13C7.328,13,8,12.329,8,11.5C8,10.672,7.328,10,6.5,10C5.672,10,5,10.672,5,11.5
			C5,12.329,5.672,13,6.5,13z"/>
	</g>
</g>
<g>
</g>
<g>
</g>
<g>
</g>
<g>
</g>
<g>
</g>
<g>
</g>
<g>
</g>
<g>
</g>
<g>
</g>
<g>
</g>
<g>
</g>
<g>
</g>
<g>
</g>
<g>
</g>
<g>
</g>
</svg>
