<?xml version="1.0" encoding="iso-8859-1"?>
<!-- Generator: Adobe Illustrator 18.0.0, SVG Export Plug-In . SVG Version: 6.00 Build 0)  -->
<!DOCTYPE svg PUBLIC "-//W3C//DTD SVG 1.1//EN" "http://www.w3.org/Graphics/SVG/1.1/DTD/svg11.dtd">
<svg version="1.1" id="Capa_1" xmlns="http://www.w3.org/2000/svg" xmlns:xlink="http://www.w3.org/1999/xlink" x="0px" y="0px"
	 viewBox="0 0 32 26.002" style="enable-background:new 0 0 32 26.002;" xml:space="preserve">
<g id="envelope">
	<g>
		<path style="fill-rule:evenodd;clip-rule:evenodd;" d="M31.997,0.988c0.004-0.257-0.089-0.514-0.285-0.71
			c-0.209-0.209-0.487-0.294-0.76-0.275H1.048c-0.273-0.018-0.551,0.067-0.76,0.275c-0.196,0.196-0.289,0.453-0.285,0.71
			C0.003,0.993,0,0.997,0,1.002v24c0,0.552,0.448,1,1,1h30c0.552,0,1-0.448,1-1v-24C32,0.997,31.997,0.993,31.997,0.988z
			 M28.332,2.002L16,12.695L3.668,2.002H28.332z M30,23.002c0,0.552-0.448,1-1,1H3c-0.552,0-1-0.448-1-1V3.153l13.225,11.466
			c0.022,0.028,0.032,0.062,0.058,0.088c0.198,0.198,0.458,0.289,0.717,0.284c0.259,0.006,0.519-0.086,0.717-0.284
			c0.026-0.026,0.036-0.06,0.058-0.088L30,3.153V23.002z"/>
	</g>
</g>
<g>
</g>
<g>
</g>
<g>
</g>
<g>
</g>
<g>
</g>
<g>
</g>
<g>
</g>
<g>
</g>
<g>
</g>
<g>
</g>
<g>
</g>
<g>
</g>
<g>
</g>
<g>
</g>
<g>
</g>
</svg>
