<?xml version="1.0" encoding="iso-8859-1"?>
<!-- Generator: Adobe Illustrator 18.0.0, SVG Export Plug-In . SVG Version: 6.00 Build 0)  -->
<!DOCTYPE svg PUBLIC "-//W3C//DTD SVG 1.1//EN" "http://www.w3.org/Graphics/SVG/1.1/DTD/svg11.dtd">
<svg version="1.1" id="Capa_1" xmlns="http://www.w3.org/2000/svg" xmlns:xlink="http://www.w3.org/1999/xlink" x="0px" y="0px"
	 viewBox="0 0 32 32" style="enable-background:new 0 0 32 32;" xml:space="preserve">
<g id="printer">
	<g>
		<path style="fill-rule:evenodd;clip-rule:evenodd;" d="M31,6h-6V0H8v6H1C0.448,6,0,6.448,0,7v18c0,0.552,0.448,1,1,1h7v6h17v-6h6
			c0.552,0,1-0.448,1-1V7C32,6.448,31.552,6,31,6z M10,2h13v4H10V2z M23,30H10V20h13V30z M30,23c0,0.552-0.448,1-1,1h-4v-6H8v6H3
			c-0.552,0-1-0.448-1-1V9c0-0.552,0.448-1,1-1h26c0.552,0,1,0.448,1,1V23z M4.5,11C3.672,11,3,11.672,3,12.5
			C3,13.328,3.672,14,4.5,14C5.328,14,6,13.328,6,12.5C6,11.672,5.328,11,4.5,11z M9.5,11C8.672,11,8,11.672,8,12.5
			C8,13.328,8.672,14,9.5,14c0.828,0,1.5-0.672,1.5-1.5C11,11.672,10.328,11,9.5,11z"/>
	</g>
</g>
<g>
</g>
<g>
</g>
<g>
</g>
<g>
</g>
<g>
</g>
<g>
</g>
<g>
</g>
<g>
</g>
<g>
</g>
<g>
</g>
<g>
</g>
<g>
</g>
<g>
</g>
<g>
</g>
<g>
</g>
</svg>
