<?xml version="1.0" encoding="iso-8859-1"?>
<!-- Generator: Adobe Illustrator 18.0.0, SVG Export Plug-In . SVG Version: 6.00 Build 0)  -->
<!DOCTYPE svg PUBLIC "-//W3C//DTD SVG 1.1//EN" "http://www.w3.org/Graphics/SVG/1.1/DTD/svg11.dtd">
<svg version="1.1" id="Capa_1" xmlns="http://www.w3.org/2000/svg" xmlns:xlink="http://www.w3.org/1999/xlink" x="0px" y="0px"
	 viewBox="0 0 32 32" style="enable-background:new 0 0 32 32;" xml:space="preserve">
<g id="_x39__9_">
	<g>
		<path style="fill-rule:evenodd;clip-rule:evenodd;" d="M6,28c0,2.209,1.791,4,4,4c2.209,0,4-1.791,4-4s-1.791-4-4-4
			C7.791,24,6,25.791,6,28z M10,26c1.105,0,2,0.895,2,2s-0.895,2-2,2s-2-0.896-2-2S8.895,26,10,26z M18,28c0,2.209,1.791,4,4,4
			c2.209,0,4-1.791,4-4s-1.791-4-4-4C19.791,24,18,25.791,18,28z M22,26c1.105,0,2,0.895,2,2s-0.895,2-2,2c-1.105,0-2-0.896-2-2
			S20.895,26,22,26z M8,22c-1.105,0-2-0.895-2-2l23-2c0,0,3-12.125,3-13c0-0.552-0.448-1-1-1H6V2h1c0.552,0,1-0.448,1-1
			c0-0.552-0.448-1-1-1H1C0.448,0,0,0.448,0,1c0,0.552,0.448,1,1,1h3v18c0,2.209,1.791,4,4,4h2h12h9c0.031,0,0-0.992,0-2H8z M6,6h24
			l-2.557,10.228L6,18V6z"/>
	</g>
</g>
<g>
</g>
<g>
</g>
<g>
</g>
<g>
</g>
<g>
</g>
<g>
</g>
<g>
</g>
<g>
</g>
<g>
</g>
<g>
</g>
<g>
</g>
<g>
</g>
<g>
</g>
<g>
</g>
<g>
</g>
</svg>
